G04 #@! TF.FileFunction,Legend,Top*
%FSLAX46Y46*%
G04 Gerber Fmt 4.6, Leading zero omitted, Abs format (unit mm)*
G04 Created by KiCad (PCBNEW 4.0.5) date 03/19/17 22:24:07*
%MOMM*%
%LPD*%
G01*
G04 APERTURE LIST*
%ADD10C,0.100000*%
%ADD11C,0.120000*%
%ADD12C,0.150000*%
G04 APERTURE END LIST*
D10*
X11533333Y-21457143D02*
X12142857Y-21457143D01*
X11838095Y-21761905D02*
X11838095Y-21152381D01*
X12942857Y-21761905D02*
X12485714Y-21761905D01*
X12714285Y-21761905D02*
X12714285Y-20961905D01*
X12638095Y-21076190D01*
X12561904Y-21152381D01*
X12485714Y-21190476D01*
X13247619Y-21038095D02*
X13285714Y-21000000D01*
X13361905Y-20961905D01*
X13552381Y-20961905D01*
X13628571Y-21000000D01*
X13666667Y-21038095D01*
X13704762Y-21114286D01*
X13704762Y-21190476D01*
X13666667Y-21304762D01*
X13209524Y-21761905D01*
X13704762Y-21761905D01*
X12090477Y-18300000D02*
X12014286Y-18261905D01*
X11900001Y-18261905D01*
X11785715Y-18300000D01*
X11709524Y-18376190D01*
X11671429Y-18452381D01*
X11633334Y-18604762D01*
X11633334Y-18719048D01*
X11671429Y-18871429D01*
X11709524Y-18947619D01*
X11785715Y-19023810D01*
X11900001Y-19061905D01*
X11976191Y-19061905D01*
X12090477Y-19023810D01*
X12128572Y-18985714D01*
X12128572Y-18719048D01*
X11976191Y-18719048D01*
X12471429Y-19061905D02*
X12471429Y-18261905D01*
X12928572Y-19061905D01*
X12928572Y-18261905D01*
X13309524Y-19061905D02*
X13309524Y-18261905D01*
X13500000Y-18261905D01*
X13614286Y-18300000D01*
X13690477Y-18376190D01*
X13728572Y-18452381D01*
X13766667Y-18604762D01*
X13766667Y-18719048D01*
X13728572Y-18871429D01*
X13690477Y-18947619D01*
X13614286Y-19023810D01*
X13500000Y-19061905D01*
X13309524Y-19061905D01*
X11533333Y-15661905D02*
X11800000Y-16461905D01*
X12066667Y-15661905D01*
X12790476Y-16385714D02*
X12752381Y-16423810D01*
X12638095Y-16461905D01*
X12561905Y-16461905D01*
X12447619Y-16423810D01*
X12371428Y-16347619D01*
X12333333Y-16271429D01*
X12295238Y-16119048D01*
X12295238Y-16004762D01*
X12333333Y-15852381D01*
X12371428Y-15776190D01*
X12447619Y-15700000D01*
X12561905Y-15661905D01*
X12638095Y-15661905D01*
X12752381Y-15700000D01*
X12790476Y-15738095D01*
X13590476Y-16385714D02*
X13552381Y-16423810D01*
X13438095Y-16461905D01*
X13361905Y-16461905D01*
X13247619Y-16423810D01*
X13171428Y-16347619D01*
X13133333Y-16271429D01*
X13095238Y-16119048D01*
X13095238Y-16004762D01*
X13133333Y-15852381D01*
X13171428Y-15776190D01*
X13247619Y-15700000D01*
X13361905Y-15661905D01*
X13438095Y-15661905D01*
X13552381Y-15700000D01*
X13590476Y-15738095D01*
X11628572Y-13923810D02*
X11742858Y-13961905D01*
X11933334Y-13961905D01*
X12009524Y-13923810D01*
X12047620Y-13885714D01*
X12085715Y-13809524D01*
X12085715Y-13733333D01*
X12047620Y-13657143D01*
X12009524Y-13619048D01*
X11933334Y-13580952D01*
X11780953Y-13542857D01*
X11704762Y-13504762D01*
X11666667Y-13466667D01*
X11628572Y-13390476D01*
X11628572Y-13314286D01*
X11666667Y-13238095D01*
X11704762Y-13200000D01*
X11780953Y-13161905D01*
X11971429Y-13161905D01*
X12085715Y-13200000D01*
X12428572Y-13961905D02*
X12428572Y-13161905D01*
X12619048Y-13161905D01*
X12733334Y-13200000D01*
X12809525Y-13276190D01*
X12847620Y-13352381D01*
X12885715Y-13504762D01*
X12885715Y-13619048D01*
X12847620Y-13771429D01*
X12809525Y-13847619D01*
X12733334Y-13923810D01*
X12619048Y-13961905D01*
X12428572Y-13961905D01*
X13190477Y-13733333D02*
X13571429Y-13733333D01*
X13114286Y-13961905D02*
X13380953Y-13161905D01*
X13647620Y-13961905D01*
X11647619Y-11223810D02*
X11761905Y-11261905D01*
X11952381Y-11261905D01*
X12028571Y-11223810D01*
X12066667Y-11185714D01*
X12104762Y-11109524D01*
X12104762Y-11033333D01*
X12066667Y-10957143D01*
X12028571Y-10919048D01*
X11952381Y-10880952D01*
X11800000Y-10842857D01*
X11723809Y-10804762D01*
X11685714Y-10766667D01*
X11647619Y-10690476D01*
X11647619Y-10614286D01*
X11685714Y-10538095D01*
X11723809Y-10500000D01*
X11800000Y-10461905D01*
X11990476Y-10461905D01*
X12104762Y-10500000D01*
X12904762Y-11185714D02*
X12866667Y-11223810D01*
X12752381Y-11261905D01*
X12676191Y-11261905D01*
X12561905Y-11223810D01*
X12485714Y-11147619D01*
X12447619Y-11071429D01*
X12409524Y-10919048D01*
X12409524Y-10804762D01*
X12447619Y-10652381D01*
X12485714Y-10576190D01*
X12561905Y-10500000D01*
X12676191Y-10461905D01*
X12752381Y-10461905D01*
X12866667Y-10500000D01*
X12904762Y-10538095D01*
X13628572Y-11261905D02*
X13247619Y-11261905D01*
X13247619Y-10461905D01*
D11*
X2670000Y-12270000D02*
X2670000Y-22490000D01*
X2670000Y-22490000D02*
X5330000Y-22490000D01*
X5330000Y-22490000D02*
X5330000Y-12270000D01*
X5330000Y-12270000D02*
X2670000Y-12270000D01*
X2670000Y-11000000D02*
X2670000Y-9670000D01*
X2670000Y-9670000D02*
X4000000Y-9670000D01*
X5670000Y-12270000D02*
X5670000Y-22490000D01*
X5670000Y-22490000D02*
X8330000Y-22490000D01*
X8330000Y-22490000D02*
X8330000Y-12270000D01*
X8330000Y-12270000D02*
X5670000Y-12270000D01*
X5670000Y-11000000D02*
X5670000Y-9670000D01*
X5670000Y-9670000D02*
X7000000Y-9670000D01*
X8670000Y-12270000D02*
X8670000Y-22490000D01*
X8670000Y-22490000D02*
X11330000Y-22490000D01*
X11330000Y-22490000D02*
X11330000Y-12270000D01*
X11330000Y-12270000D02*
X8670000Y-12270000D01*
X8670000Y-11000000D02*
X8670000Y-9670000D01*
X8670000Y-9670000D02*
X10000000Y-9670000D01*
D12*
X3361905Y-9452381D02*
X3361905Y-8452381D01*
X3742858Y-8452381D01*
X3838096Y-8500000D01*
X3885715Y-8547619D01*
X3933334Y-8642857D01*
X3933334Y-8785714D01*
X3885715Y-8880952D01*
X3838096Y-8928571D01*
X3742858Y-8976190D01*
X3361905Y-8976190D01*
X4885715Y-9452381D02*
X4314286Y-9452381D01*
X4600000Y-9452381D02*
X4600000Y-8452381D01*
X4504762Y-8595238D01*
X4409524Y-8690476D01*
X4314286Y-8738095D01*
X6361905Y-9452381D02*
X6361905Y-8452381D01*
X6742858Y-8452381D01*
X6838096Y-8500000D01*
X6885715Y-8547619D01*
X6933334Y-8642857D01*
X6933334Y-8785714D01*
X6885715Y-8880952D01*
X6838096Y-8928571D01*
X6742858Y-8976190D01*
X6361905Y-8976190D01*
X7314286Y-8547619D02*
X7361905Y-8500000D01*
X7457143Y-8452381D01*
X7695239Y-8452381D01*
X7790477Y-8500000D01*
X7838096Y-8547619D01*
X7885715Y-8642857D01*
X7885715Y-8738095D01*
X7838096Y-8880952D01*
X7266667Y-9452381D01*
X7885715Y-9452381D01*
X9261905Y-9452381D02*
X9261905Y-8452381D01*
X9642858Y-8452381D01*
X9738096Y-8500000D01*
X9785715Y-8547619D01*
X9833334Y-8642857D01*
X9833334Y-8785714D01*
X9785715Y-8880952D01*
X9738096Y-8928571D01*
X9642858Y-8976190D01*
X9261905Y-8976190D01*
X10166667Y-8452381D02*
X10785715Y-8452381D01*
X10452381Y-8833333D01*
X10595239Y-8833333D01*
X10690477Y-8880952D01*
X10738096Y-8928571D01*
X10785715Y-9023810D01*
X10785715Y-9261905D01*
X10738096Y-9357143D01*
X10690477Y-9404762D01*
X10595239Y-9452381D01*
X10309524Y-9452381D01*
X10214286Y-9404762D01*
X10166667Y-9357143D01*
M02*
