G04 #@! TF.FileFunction,Soldermask,Bot*
%FSLAX46Y46*%
G04 Gerber Fmt 4.6, Leading zero omitted, Abs format (unit mm)*
G04 Created by KiCad (PCBNEW 4.0.5) date 03/19/17 17:23:27*
%MOMM*%
%LPD*%
G01*
G04 APERTURE LIST*
%ADD10C,0.100000*%
%ADD11C,1.797000*%
%ADD12C,5.400000*%
%ADD13R,2.100000X2.100000*%
%ADD14O,2.100000X2.100000*%
%ADD15R,2.200000X2.200000*%
%ADD16C,2.200000*%
%ADD17C,5.000000*%
%ADD18R,1.924000X1.924000*%
G04 APERTURE END LIST*
D10*
D11*
X21122640Y-35941000D03*
X26121360Y-35941000D03*
X23622000Y-35941000D03*
D12*
X46000000Y-46000000D03*
X3000000Y-46000000D03*
X3000000Y-3000000D03*
X46000000Y-3000000D03*
D13*
X44958000Y-34163000D03*
D14*
X44958000Y-36703000D03*
X44958000Y-39243000D03*
X44958000Y-41783000D03*
D15*
X10414000Y-16891000D03*
D16*
X10414000Y-19431000D03*
D13*
X9144000Y-32385000D03*
D14*
X9144000Y-34925000D03*
X6604000Y-32385000D03*
X6604000Y-34925000D03*
X4064000Y-32385000D03*
X4064000Y-34925000D03*
D17*
X38481000Y-4699000D03*
X38481000Y-10799000D03*
X33881000Y-7899000D03*
D13*
X24765000Y-44831000D03*
D14*
X22225000Y-44831000D03*
X19685000Y-44831000D03*
X17145000Y-44831000D03*
D15*
X4191000Y-40894000D03*
D16*
X4191000Y-38354000D03*
D15*
X9779000Y-41021000D03*
D16*
X9779000Y-38481000D03*
D13*
X39878000Y-44704000D03*
D14*
X37338000Y-44704000D03*
X34798000Y-44704000D03*
X32258000Y-44704000D03*
X29718000Y-44704000D03*
D18*
X44958000Y-15494000D03*
X35958000Y-15494000D03*
X44958000Y-30494000D03*
X35958000Y-30494000D03*
D13*
X3683000Y-12065000D03*
D14*
X3683000Y-9525000D03*
X3683000Y-6985000D03*
M02*
