M48
;DRILL file {KiCad 4.0.5} date 03/19/17 17:23:29
;FORMAT={-:-/ absolute / metric / decimal}
FMAT,2
METRIC,TZ
T1C0.400
T2C0.813
T3C0.900
T4C1.000
T5C2.540
T6C3.175
%
G90
G05
M71
T1
X2.794Y-18.415
X4.064Y-19.685
X4.064Y-26.035
X5.588Y-26.035
X5.715Y-14.605
X7.112Y-30.226
X7.112Y-36.703
X7.493Y-20.447
X7.493Y-26.162
X9.271Y-26.035
X9.525Y-20.574
X10.922Y-32.385
X11.303Y-9.525
X11.303Y-25.146
X11.811Y-32.639
X12.827Y-26.67
X13.97Y-8.636
X14.224Y-25.908
X14.351Y-28.194
X14.605Y-20.828
X14.605Y-24.511
X14.605Y-44.831
X14.859Y-2.032
X15.367Y-6.858
X17.018Y-2.159
X17.399Y-32.766
X18.669Y-23.114
X18.669Y-28.321
X18.923Y-26.543
X19.431Y-14.732
X20.193Y-13.208
X20.574Y-29.337
X22.098Y-30.099
X23.876Y-1.27
X24.384Y-11.43
X27.686Y-37.465
X28.194Y-17.653
X28.321Y-36.576
X29.718Y-29.464
X29.718Y-33.274
X30.226Y-18.542
X30.734Y-40.386
X30.988Y-38.989
X31.242Y-24.511
X31.496Y-36.703
X34.29Y-40.64
X38.1Y-38.227
X40.64Y-40.64
T2
X21.123Y-35.941
X23.622Y-35.941
X26.121Y-35.941
T3
X4.191Y-38.354
X4.191Y-40.894
X9.779Y-38.481
X9.779Y-41.021
X10.414Y-16.891
X10.414Y-19.431
T4
X3.683Y-6.985
X3.683Y-9.525
X3.683Y-12.065
X4.064Y-32.385
X4.064Y-34.925
X6.604Y-32.385
X6.604Y-34.925
X9.144Y-32.385
X9.144Y-34.925
X17.145Y-44.831
X19.685Y-44.831
X22.225Y-44.831
X24.765Y-44.831
X29.718Y-44.704
X32.258Y-44.704
X34.798Y-44.704
X35.958Y-15.494
X35.958Y-30.494
X37.338Y-44.704
X39.878Y-44.704
X44.958Y-15.494
X44.958Y-30.494
X44.958Y-34.163
X44.958Y-36.703
X44.958Y-39.243
X44.958Y-41.783
T5
X33.881Y-7.899
X38.481Y-4.699
X38.481Y-10.799
T6
X3.Y-3.
X3.Y-46.
X46.Y-3.
X46.Y-46.
T0
M30
