G04 #@! TF.FileFunction,Legend,Top*
%FSLAX46Y46*%
G04 Gerber Fmt 4.6, Leading zero omitted, Abs format (unit mm)*
G04 Created by KiCad (PCBNEW 4.0.5) date 03/18/17 14:23:22*
%MOMM*%
%LPD*%
G01*
G04 APERTURE LIST*
%ADD10C,0.100000*%
%ADD11C,0.150000*%
%ADD12C,0.120000*%
%ADD13C,0.381000*%
%ADD14C,0.271780*%
G04 APERTURE END LIST*
D10*
D11*
X17825000Y-16825000D02*
X17825000Y-17625000D01*
X32175000Y-16825000D02*
X32175000Y-17625000D01*
X32175000Y-31175000D02*
X32175000Y-30375000D01*
X17825000Y-31175000D02*
X17825000Y-30375000D01*
X17825000Y-16825000D02*
X18625000Y-16825000D01*
X17825000Y-31175000D02*
X18625000Y-31175000D01*
X32175000Y-31175000D02*
X31375000Y-31175000D01*
X32175000Y-16825000D02*
X31375000Y-16825000D01*
X17825000Y-17625000D02*
X16550000Y-17625000D01*
D12*
X22146000Y-38945000D02*
X23346000Y-38945000D01*
X23346000Y-40705000D02*
X22146000Y-40705000D01*
D13*
X25997200Y-37575060D02*
X19494800Y-37575060D01*
X19494800Y-37575060D02*
X19494800Y-34074940D01*
X19494800Y-34074940D02*
X25997200Y-34074940D01*
X25997200Y-34074940D02*
X25997200Y-37575060D01*
D12*
X19312000Y-44030000D02*
X20312000Y-44030000D01*
X20312000Y-42330000D02*
X19312000Y-42330000D01*
X23785000Y-45482000D02*
X23785000Y-47482000D01*
X23785000Y-47482000D02*
X27685000Y-47482000D01*
X23785000Y-45482000D02*
X27685000Y-45482000D01*
X25181000Y-42300000D02*
X26381000Y-42300000D01*
X26381000Y-44060000D02*
X25181000Y-44060000D01*
X35695000Y-36260000D02*
X34495000Y-36260000D01*
X34495000Y-34500000D02*
X35695000Y-34500000D01*
X35695000Y-33260000D02*
X34495000Y-33260000D01*
X34495000Y-31500000D02*
X35695000Y-31500000D01*
X46280000Y-31610000D02*
X46280000Y-34270000D01*
X46280000Y-34270000D02*
X49020000Y-34270000D01*
X49020000Y-34270000D02*
X49020000Y-31610000D01*
X49020000Y-31610000D02*
X46280000Y-31610000D01*
X49020000Y-32560000D02*
X49020000Y-33440000D01*
X49020000Y-33440000D02*
X55020000Y-33440000D01*
X55020000Y-33440000D02*
X55020000Y-32560000D01*
X55020000Y-32560000D02*
X49020000Y-32560000D01*
X45970000Y-32560000D02*
X46280000Y-32560000D01*
X45970000Y-33440000D02*
X46280000Y-33440000D01*
X49020000Y-32680000D02*
X55020000Y-32680000D01*
X49020000Y-32800000D02*
X55020000Y-32800000D01*
X49020000Y-32920000D02*
X55020000Y-32920000D01*
X49020000Y-33040000D02*
X55020000Y-33040000D01*
X49020000Y-33160000D02*
X55020000Y-33160000D01*
X49020000Y-33280000D02*
X55020000Y-33280000D01*
X49020000Y-33400000D02*
X55020000Y-33400000D01*
X46280000Y-34270000D02*
X46280000Y-36810000D01*
X46280000Y-36810000D02*
X49020000Y-36810000D01*
X49020000Y-36810000D02*
X49020000Y-34270000D01*
X49020000Y-34270000D02*
X46280000Y-34270000D01*
X49020000Y-35100000D02*
X49020000Y-35980000D01*
X49020000Y-35980000D02*
X55020000Y-35980000D01*
X55020000Y-35980000D02*
X55020000Y-35100000D01*
X55020000Y-35100000D02*
X49020000Y-35100000D01*
X45970000Y-35100000D02*
X46280000Y-35100000D01*
X45970000Y-35980000D02*
X46280000Y-35980000D01*
X46280000Y-36810000D02*
X46280000Y-39350000D01*
X46280000Y-39350000D02*
X49020000Y-39350000D01*
X49020000Y-39350000D02*
X49020000Y-36810000D01*
X49020000Y-36810000D02*
X46280000Y-36810000D01*
X49020000Y-37640000D02*
X49020000Y-38520000D01*
X49020000Y-38520000D02*
X55020000Y-38520000D01*
X55020000Y-38520000D02*
X55020000Y-37640000D01*
X55020000Y-37640000D02*
X49020000Y-37640000D01*
X45970000Y-37640000D02*
X46280000Y-37640000D01*
X45970000Y-38520000D02*
X46280000Y-38520000D01*
X46280000Y-39350000D02*
X46280000Y-42010000D01*
X46280000Y-42010000D02*
X49020000Y-42010000D01*
X49020000Y-42010000D02*
X49020000Y-39350000D01*
X49020000Y-39350000D02*
X46280000Y-39350000D01*
X49020000Y-40180000D02*
X49020000Y-41060000D01*
X49020000Y-41060000D02*
X55020000Y-41060000D01*
X55020000Y-41060000D02*
X55020000Y-40180000D01*
X55020000Y-40180000D02*
X49020000Y-40180000D01*
X45970000Y-40180000D02*
X46280000Y-40180000D01*
X45970000Y-41060000D02*
X46280000Y-41060000D01*
X43730000Y-33000000D02*
X43730000Y-31730000D01*
X43730000Y-31730000D02*
X45000000Y-31730000D01*
D11*
X24023810Y-15002381D02*
X24023810Y-14002381D01*
X25071429Y-14907143D02*
X25023810Y-14954762D01*
X24880953Y-15002381D01*
X24785715Y-15002381D01*
X24642857Y-14954762D01*
X24547619Y-14859524D01*
X24500000Y-14764286D01*
X24452381Y-14573810D01*
X24452381Y-14430952D01*
X24500000Y-14240476D01*
X24547619Y-14145238D01*
X24642857Y-14050000D01*
X24785715Y-14002381D01*
X24880953Y-14002381D01*
X25023810Y-14050000D01*
X25071429Y-14097619D01*
X26023810Y-15002381D02*
X25452381Y-15002381D01*
X25738095Y-15002381D02*
X25738095Y-14002381D01*
X25642857Y-14145238D01*
X25547619Y-14240476D01*
X25452381Y-14288095D01*
X22579334Y-41977381D02*
X22246000Y-41501190D01*
X22007905Y-41977381D02*
X22007905Y-40977381D01*
X22388858Y-40977381D01*
X22484096Y-41025000D01*
X22531715Y-41072619D01*
X22579334Y-41167857D01*
X22579334Y-41310714D01*
X22531715Y-41405952D01*
X22484096Y-41453571D01*
X22388858Y-41501190D01*
X22007905Y-41501190D01*
X23531715Y-41977381D02*
X22960286Y-41977381D01*
X23246000Y-41977381D02*
X23246000Y-40977381D01*
X23150762Y-41120238D01*
X23055524Y-41215476D01*
X22960286Y-41263095D01*
D14*
X22279125Y-38283176D02*
X22279125Y-39106861D01*
X21916751Y-37377121D02*
X22279125Y-38283176D01*
X22641498Y-37377121D01*
X23573315Y-39106861D02*
X22952103Y-39106861D01*
X23262709Y-39106861D02*
X23262709Y-37377121D01*
X23159174Y-37624227D01*
X23055639Y-37788964D01*
X22952103Y-37871333D01*
D11*
X19645334Y-45287143D02*
X19597715Y-45334762D01*
X19454858Y-45382381D01*
X19359620Y-45382381D01*
X19216762Y-45334762D01*
X19121524Y-45239524D01*
X19073905Y-45144286D01*
X19026286Y-44953810D01*
X19026286Y-44810952D01*
X19073905Y-44620476D01*
X19121524Y-44525238D01*
X19216762Y-44430000D01*
X19359620Y-44382381D01*
X19454858Y-44382381D01*
X19597715Y-44430000D01*
X19645334Y-44477619D01*
X20597715Y-45382381D02*
X20026286Y-45382381D01*
X20312000Y-45382381D02*
X20312000Y-44382381D01*
X20216762Y-44525238D01*
X20121524Y-44620476D01*
X20026286Y-44668095D01*
X25296905Y-44934381D02*
X25296905Y-43934381D01*
X25535000Y-43934381D01*
X25677858Y-43982000D01*
X25773096Y-44077238D01*
X25820715Y-44172476D01*
X25868334Y-44362952D01*
X25868334Y-44505810D01*
X25820715Y-44696286D01*
X25773096Y-44791524D01*
X25677858Y-44886762D01*
X25535000Y-44934381D01*
X25296905Y-44934381D01*
X26820715Y-44934381D02*
X26249286Y-44934381D01*
X26535000Y-44934381D02*
X26535000Y-43934381D01*
X26439762Y-44077238D01*
X26344524Y-44172476D01*
X26249286Y-44220095D01*
X25614334Y-45332381D02*
X25281000Y-44856190D01*
X25042905Y-45332381D02*
X25042905Y-44332381D01*
X25423858Y-44332381D01*
X25519096Y-44380000D01*
X25566715Y-44427619D01*
X25614334Y-44522857D01*
X25614334Y-44665714D01*
X25566715Y-44760952D01*
X25519096Y-44808571D01*
X25423858Y-44856190D01*
X25042905Y-44856190D01*
X25995286Y-44427619D02*
X26042905Y-44380000D01*
X26138143Y-44332381D01*
X26376239Y-44332381D01*
X26471477Y-44380000D01*
X26519096Y-44427619D01*
X26566715Y-44522857D01*
X26566715Y-44618095D01*
X26519096Y-44760952D01*
X25947667Y-45332381D01*
X26566715Y-45332381D01*
X34928334Y-34132381D02*
X34595000Y-33656190D01*
X34356905Y-34132381D02*
X34356905Y-33132381D01*
X34737858Y-33132381D01*
X34833096Y-33180000D01*
X34880715Y-33227619D01*
X34928334Y-33322857D01*
X34928334Y-33465714D01*
X34880715Y-33560952D01*
X34833096Y-33608571D01*
X34737858Y-33656190D01*
X34356905Y-33656190D01*
X35261667Y-33132381D02*
X35880715Y-33132381D01*
X35547381Y-33513333D01*
X35690239Y-33513333D01*
X35785477Y-33560952D01*
X35833096Y-33608571D01*
X35880715Y-33703810D01*
X35880715Y-33941905D01*
X35833096Y-34037143D01*
X35785477Y-34084762D01*
X35690239Y-34132381D01*
X35404524Y-34132381D01*
X35309286Y-34084762D01*
X35261667Y-34037143D01*
X34928334Y-31132381D02*
X34595000Y-30656190D01*
X34356905Y-31132381D02*
X34356905Y-30132381D01*
X34737858Y-30132381D01*
X34833096Y-30180000D01*
X34880715Y-30227619D01*
X34928334Y-30322857D01*
X34928334Y-30465714D01*
X34880715Y-30560952D01*
X34833096Y-30608571D01*
X34737858Y-30656190D01*
X34356905Y-30656190D01*
X35785477Y-30465714D02*
X35785477Y-31132381D01*
X35547381Y-30084762D02*
X35309286Y-30799048D01*
X35928334Y-30799048D01*
X48553095Y-30182381D02*
X48553095Y-30991905D01*
X48600714Y-31087143D01*
X48648333Y-31134762D01*
X48743571Y-31182381D01*
X48934048Y-31182381D01*
X49029286Y-31134762D01*
X49076905Y-31087143D01*
X49124524Y-30991905D01*
X49124524Y-30182381D01*
X50124524Y-31182381D02*
X49553095Y-31182381D01*
X49838809Y-31182381D02*
X49838809Y-30182381D01*
X49743571Y-30325238D01*
X49648333Y-30420476D01*
X49553095Y-30468095D01*
M02*
