G04 #@! TF.FileFunction,Soldermask,Top*
%FSLAX46Y46*%
G04 Gerber Fmt 4.6, Leading zero omitted, Abs format (unit mm)*
G04 Created by KiCad (PCBNEW 4.0.5) date 03/18/17 14:23:22*
%MOMM*%
%LPD*%
G01*
G04 APERTURE LIST*
%ADD10C,0.100000*%
%ADD11R,1.900000X0.700000*%
%ADD12R,0.700000X1.900000*%
%ADD13R,1.900000X1.700000*%
%ADD14C,1.797000*%
%ADD15C,5.400000*%
%ADD16R,1.900000X1.650000*%
%ADD17R,1.300000X1.600000*%
%ADD18R,2.100000X2.100000*%
%ADD19O,2.100000X2.100000*%
G04 APERTURE END LIST*
D10*
D11*
X17300000Y-18000000D03*
X17300000Y-18500000D03*
X17300000Y-19000000D03*
X17300000Y-19500000D03*
X17300000Y-20000000D03*
X17300000Y-20500000D03*
X17300000Y-21000000D03*
X17300000Y-21500000D03*
X17300000Y-22000000D03*
X17300000Y-22500000D03*
X17300000Y-23000000D03*
X17300000Y-23500000D03*
X17300000Y-24000000D03*
X17300000Y-24500000D03*
X17300000Y-25000000D03*
X17300000Y-25500000D03*
X17300000Y-26000000D03*
X17300000Y-26500000D03*
X17300000Y-27000000D03*
X17300000Y-27500000D03*
X17300000Y-28000000D03*
X17300000Y-28500000D03*
X17300000Y-29000000D03*
X17300000Y-29500000D03*
X17300000Y-30000000D03*
D12*
X19000000Y-31700000D03*
X19500000Y-31700000D03*
X20000000Y-31700000D03*
X20500000Y-31700000D03*
X21000000Y-31700000D03*
X21500000Y-31700000D03*
X22000000Y-31700000D03*
X22500000Y-31700000D03*
X23000000Y-31700000D03*
X23500000Y-31700000D03*
X24000000Y-31700000D03*
X24500000Y-31700000D03*
X25000000Y-31700000D03*
X25500000Y-31700000D03*
X26000000Y-31700000D03*
X26500000Y-31700000D03*
X27000000Y-31700000D03*
X27500000Y-31700000D03*
X28000000Y-31700000D03*
X28500000Y-31700000D03*
X29000000Y-31700000D03*
X29500000Y-31700000D03*
X30000000Y-31700000D03*
X30500000Y-31700000D03*
X31000000Y-31700000D03*
D11*
X32700000Y-30000000D03*
X32700000Y-29500000D03*
X32700000Y-29000000D03*
X32700000Y-28500000D03*
X32700000Y-28000000D03*
X32700000Y-27500000D03*
X32700000Y-27000000D03*
X32700000Y-26500000D03*
X32700000Y-26000000D03*
X32700000Y-25500000D03*
X32700000Y-25000000D03*
X32700000Y-24500000D03*
X32700000Y-24000000D03*
X32700000Y-23500000D03*
X32700000Y-23000000D03*
X32700000Y-22500000D03*
X32700000Y-22000000D03*
X32700000Y-21500000D03*
X32700000Y-21000000D03*
X32700000Y-20500000D03*
X32700000Y-20000000D03*
X32700000Y-19500000D03*
X32700000Y-19000000D03*
X32700000Y-18500000D03*
X32700000Y-18000000D03*
D12*
X31000000Y-16300000D03*
X30500000Y-16300000D03*
X30000000Y-16300000D03*
X29500000Y-16300000D03*
X29000000Y-16300000D03*
X28500000Y-16300000D03*
X28000000Y-16300000D03*
X27500000Y-16300000D03*
X27000000Y-16300000D03*
X26500000Y-16300000D03*
X26000000Y-16300000D03*
X25500000Y-16300000D03*
X25000000Y-16300000D03*
X24500000Y-16300000D03*
X24000000Y-16300000D03*
X23500000Y-16300000D03*
X23000000Y-16300000D03*
X22500000Y-16300000D03*
X22000000Y-16300000D03*
X21500000Y-16300000D03*
X21000000Y-16300000D03*
X20500000Y-16300000D03*
X20000000Y-16300000D03*
X19500000Y-16300000D03*
X19000000Y-16300000D03*
D13*
X24096000Y-39825000D03*
X21396000Y-39825000D03*
D14*
X20246640Y-35825000D03*
X25245360Y-35825000D03*
X22746000Y-35825000D03*
D15*
X46000000Y-46000000D03*
X3000000Y-46000000D03*
X3000000Y-3000000D03*
X46000000Y-3000000D03*
D16*
X21062000Y-43180000D03*
X18562000Y-43180000D03*
D17*
X24385000Y-46482000D03*
X27685000Y-46482000D03*
D13*
X27131000Y-43180000D03*
X24431000Y-43180000D03*
X33745000Y-35380000D03*
X36445000Y-35380000D03*
X33745000Y-32380000D03*
X36445000Y-32380000D03*
D18*
X45000000Y-33000000D03*
D19*
X45000000Y-35540000D03*
X45000000Y-38080000D03*
X45000000Y-40620000D03*
M02*
