G04 #@! TF.FileFunction,Copper,L2,Bot,Signal*
%FSLAX46Y46*%
G04 Gerber Fmt 4.6, Leading zero omitted, Abs format (unit mm)*
G04 Created by KiCad (PCBNEW 4.0.5) date 03/18/17 14:23:22*
%MOMM*%
%LPD*%
G01*
G04 APERTURE LIST*
%ADD10C,0.100000*%
%ADD11C,1.397000*%
%ADD12C,5.000000*%
%ADD13R,1.700000X1.700000*%
%ADD14O,1.700000X1.700000*%
%ADD15C,0.600000*%
%ADD16C,0.254000*%
G04 APERTURE END LIST*
D10*
D11*
X20246640Y-35825000D03*
X25245360Y-35825000D03*
X22746000Y-35825000D03*
D12*
X46000000Y-46000000D03*
X3000000Y-46000000D03*
X3000000Y-3000000D03*
X46000000Y-3000000D03*
D13*
X45000000Y-33000000D03*
D14*
X45000000Y-35540000D03*
X45000000Y-38080000D03*
X45000000Y-40620000D03*
D15*
X28194000Y-17653000D03*
X18669000Y-23114000D03*
X22098000Y-30099000D03*
X19431000Y-14732000D03*
X20000000Y-45000000D03*
D16*
G36*
X43343826Y-1221847D02*
X42865546Y-2373674D01*
X42864457Y-3620854D01*
X43340727Y-4773515D01*
X44221847Y-5656174D01*
X45373674Y-6134454D01*
X46620854Y-6135543D01*
X47773515Y-5659273D01*
X48290000Y-5143689D01*
X48290000Y-43856567D01*
X47778153Y-43343826D01*
X46626326Y-42865546D01*
X45379146Y-42864457D01*
X44226485Y-43340727D01*
X43343826Y-44221847D01*
X42865546Y-45373674D01*
X42864457Y-46620854D01*
X43340727Y-47773515D01*
X43856311Y-48290000D01*
X5143433Y-48290000D01*
X5656174Y-47778153D01*
X6134454Y-46626326D01*
X6135543Y-45379146D01*
X5659273Y-44226485D01*
X4778153Y-43343826D01*
X3626326Y-42865546D01*
X2379146Y-42864457D01*
X1226485Y-43340727D01*
X710000Y-43856311D01*
X710000Y-36089086D01*
X18912909Y-36089086D01*
X19115494Y-36579380D01*
X19490287Y-36954827D01*
X19980227Y-37158268D01*
X20510726Y-37158731D01*
X21001020Y-36956146D01*
X21198321Y-36759188D01*
X21991417Y-36759188D01*
X22053071Y-36994800D01*
X22553480Y-37170927D01*
X23083199Y-37142148D01*
X23438929Y-36994800D01*
X23500583Y-36759188D01*
X22746000Y-36004605D01*
X21991417Y-36759188D01*
X21198321Y-36759188D01*
X21376467Y-36581353D01*
X21489608Y-36308878D01*
X21576200Y-36517929D01*
X21811812Y-36579583D01*
X22566395Y-35825000D01*
X22925605Y-35825000D01*
X23680188Y-36579583D01*
X23915800Y-36517929D01*
X23995389Y-36291802D01*
X24114214Y-36579380D01*
X24489007Y-36954827D01*
X24978947Y-37158268D01*
X25509446Y-37158731D01*
X25999740Y-36956146D01*
X26375187Y-36581353D01*
X26578628Y-36091413D01*
X26579091Y-35560914D01*
X26570450Y-35540000D01*
X43485907Y-35540000D01*
X43598946Y-36108285D01*
X43920853Y-36590054D01*
X44250026Y-36810000D01*
X43920853Y-37029946D01*
X43598946Y-37511715D01*
X43485907Y-38080000D01*
X43598946Y-38648285D01*
X43920853Y-39130054D01*
X44250026Y-39350000D01*
X43920853Y-39569946D01*
X43598946Y-40051715D01*
X43485907Y-40620000D01*
X43598946Y-41188285D01*
X43920853Y-41670054D01*
X44402622Y-41991961D01*
X44970907Y-42105000D01*
X45029093Y-42105000D01*
X45597378Y-41991961D01*
X46079147Y-41670054D01*
X46401054Y-41188285D01*
X46514093Y-40620000D01*
X46401054Y-40051715D01*
X46079147Y-39569946D01*
X45749974Y-39350000D01*
X46079147Y-39130054D01*
X46401054Y-38648285D01*
X46514093Y-38080000D01*
X46401054Y-37511715D01*
X46079147Y-37029946D01*
X45749974Y-36810000D01*
X46079147Y-36590054D01*
X46401054Y-36108285D01*
X46514093Y-35540000D01*
X46401054Y-34971715D01*
X46079147Y-34489946D01*
X46035223Y-34460597D01*
X46209698Y-34388327D01*
X46388327Y-34209699D01*
X46485000Y-33976310D01*
X46485000Y-33285750D01*
X46326250Y-33127000D01*
X45127000Y-33127000D01*
X45127000Y-33147000D01*
X44873000Y-33147000D01*
X44873000Y-33127000D01*
X43673750Y-33127000D01*
X43515000Y-33285750D01*
X43515000Y-33976310D01*
X43611673Y-34209699D01*
X43790302Y-34388327D01*
X43964777Y-34460597D01*
X43920853Y-34489946D01*
X43598946Y-34971715D01*
X43485907Y-35540000D01*
X26570450Y-35540000D01*
X26376506Y-35070620D01*
X26001713Y-34695173D01*
X25511773Y-34491732D01*
X24981274Y-34491269D01*
X24490980Y-34693854D01*
X24115533Y-35068647D01*
X24002392Y-35341122D01*
X23915800Y-35132071D01*
X23680188Y-35070417D01*
X22925605Y-35825000D01*
X22566395Y-35825000D01*
X21811812Y-35070417D01*
X21576200Y-35132071D01*
X21496611Y-35358198D01*
X21377786Y-35070620D01*
X21198292Y-34890812D01*
X21991417Y-34890812D01*
X22746000Y-35645395D01*
X23500583Y-34890812D01*
X23438929Y-34655200D01*
X22938520Y-34479073D01*
X22408801Y-34507852D01*
X22053071Y-34655200D01*
X21991417Y-34890812D01*
X21198292Y-34890812D01*
X21002993Y-34695173D01*
X20513053Y-34491732D01*
X19982554Y-34491269D01*
X19492260Y-34693854D01*
X19116813Y-35068647D01*
X18913372Y-35558587D01*
X18912909Y-36089086D01*
X710000Y-36089086D01*
X710000Y-32023690D01*
X43515000Y-32023690D01*
X43515000Y-32714250D01*
X43673750Y-32873000D01*
X44873000Y-32873000D01*
X44873000Y-31673750D01*
X45127000Y-31673750D01*
X45127000Y-32873000D01*
X46326250Y-32873000D01*
X46485000Y-32714250D01*
X46485000Y-32023690D01*
X46388327Y-31790301D01*
X46209698Y-31611673D01*
X45976309Y-31515000D01*
X45285750Y-31515000D01*
X45127000Y-31673750D01*
X44873000Y-31673750D01*
X44714250Y-31515000D01*
X44023691Y-31515000D01*
X43790302Y-31611673D01*
X43611673Y-31790301D01*
X43515000Y-32023690D01*
X710000Y-32023690D01*
X710000Y-5143433D01*
X1221847Y-5656174D01*
X2373674Y-6134454D01*
X3620854Y-6135543D01*
X4773515Y-5659273D01*
X5656174Y-4778153D01*
X6134454Y-3626326D01*
X6135543Y-2379146D01*
X5659273Y-1226485D01*
X5143689Y-710000D01*
X43856567Y-710000D01*
X43343826Y-1221847D01*
X43343826Y-1221847D01*
G37*
X43343826Y-1221847D02*
X42865546Y-2373674D01*
X42864457Y-3620854D01*
X43340727Y-4773515D01*
X44221847Y-5656174D01*
X45373674Y-6134454D01*
X46620854Y-6135543D01*
X47773515Y-5659273D01*
X48290000Y-5143689D01*
X48290000Y-43856567D01*
X47778153Y-43343826D01*
X46626326Y-42865546D01*
X45379146Y-42864457D01*
X44226485Y-43340727D01*
X43343826Y-44221847D01*
X42865546Y-45373674D01*
X42864457Y-46620854D01*
X43340727Y-47773515D01*
X43856311Y-48290000D01*
X5143433Y-48290000D01*
X5656174Y-47778153D01*
X6134454Y-46626326D01*
X6135543Y-45379146D01*
X5659273Y-44226485D01*
X4778153Y-43343826D01*
X3626326Y-42865546D01*
X2379146Y-42864457D01*
X1226485Y-43340727D01*
X710000Y-43856311D01*
X710000Y-36089086D01*
X18912909Y-36089086D01*
X19115494Y-36579380D01*
X19490287Y-36954827D01*
X19980227Y-37158268D01*
X20510726Y-37158731D01*
X21001020Y-36956146D01*
X21198321Y-36759188D01*
X21991417Y-36759188D01*
X22053071Y-36994800D01*
X22553480Y-37170927D01*
X23083199Y-37142148D01*
X23438929Y-36994800D01*
X23500583Y-36759188D01*
X22746000Y-36004605D01*
X21991417Y-36759188D01*
X21198321Y-36759188D01*
X21376467Y-36581353D01*
X21489608Y-36308878D01*
X21576200Y-36517929D01*
X21811812Y-36579583D01*
X22566395Y-35825000D01*
X22925605Y-35825000D01*
X23680188Y-36579583D01*
X23915800Y-36517929D01*
X23995389Y-36291802D01*
X24114214Y-36579380D01*
X24489007Y-36954827D01*
X24978947Y-37158268D01*
X25509446Y-37158731D01*
X25999740Y-36956146D01*
X26375187Y-36581353D01*
X26578628Y-36091413D01*
X26579091Y-35560914D01*
X26570450Y-35540000D01*
X43485907Y-35540000D01*
X43598946Y-36108285D01*
X43920853Y-36590054D01*
X44250026Y-36810000D01*
X43920853Y-37029946D01*
X43598946Y-37511715D01*
X43485907Y-38080000D01*
X43598946Y-38648285D01*
X43920853Y-39130054D01*
X44250026Y-39350000D01*
X43920853Y-39569946D01*
X43598946Y-40051715D01*
X43485907Y-40620000D01*
X43598946Y-41188285D01*
X43920853Y-41670054D01*
X44402622Y-41991961D01*
X44970907Y-42105000D01*
X45029093Y-42105000D01*
X45597378Y-41991961D01*
X46079147Y-41670054D01*
X46401054Y-41188285D01*
X46514093Y-40620000D01*
X46401054Y-40051715D01*
X46079147Y-39569946D01*
X45749974Y-39350000D01*
X46079147Y-39130054D01*
X46401054Y-38648285D01*
X46514093Y-38080000D01*
X46401054Y-37511715D01*
X46079147Y-37029946D01*
X45749974Y-36810000D01*
X46079147Y-36590054D01*
X46401054Y-36108285D01*
X46514093Y-35540000D01*
X46401054Y-34971715D01*
X46079147Y-34489946D01*
X46035223Y-34460597D01*
X46209698Y-34388327D01*
X46388327Y-34209699D01*
X46485000Y-33976310D01*
X46485000Y-33285750D01*
X46326250Y-33127000D01*
X45127000Y-33127000D01*
X45127000Y-33147000D01*
X44873000Y-33147000D01*
X44873000Y-33127000D01*
X43673750Y-33127000D01*
X43515000Y-33285750D01*
X43515000Y-33976310D01*
X43611673Y-34209699D01*
X43790302Y-34388327D01*
X43964777Y-34460597D01*
X43920853Y-34489946D01*
X43598946Y-34971715D01*
X43485907Y-35540000D01*
X26570450Y-35540000D01*
X26376506Y-35070620D01*
X26001713Y-34695173D01*
X25511773Y-34491732D01*
X24981274Y-34491269D01*
X24490980Y-34693854D01*
X24115533Y-35068647D01*
X24002392Y-35341122D01*
X23915800Y-35132071D01*
X23680188Y-35070417D01*
X22925605Y-35825000D01*
X22566395Y-35825000D01*
X21811812Y-35070417D01*
X21576200Y-35132071D01*
X21496611Y-35358198D01*
X21377786Y-35070620D01*
X21198292Y-34890812D01*
X21991417Y-34890812D01*
X22746000Y-35645395D01*
X23500583Y-34890812D01*
X23438929Y-34655200D01*
X22938520Y-34479073D01*
X22408801Y-34507852D01*
X22053071Y-34655200D01*
X21991417Y-34890812D01*
X21198292Y-34890812D01*
X21002993Y-34695173D01*
X20513053Y-34491732D01*
X19982554Y-34491269D01*
X19492260Y-34693854D01*
X19116813Y-35068647D01*
X18913372Y-35558587D01*
X18912909Y-36089086D01*
X710000Y-36089086D01*
X710000Y-32023690D01*
X43515000Y-32023690D01*
X43515000Y-32714250D01*
X43673750Y-32873000D01*
X44873000Y-32873000D01*
X44873000Y-31673750D01*
X45127000Y-31673750D01*
X45127000Y-32873000D01*
X46326250Y-32873000D01*
X46485000Y-32714250D01*
X46485000Y-32023690D01*
X46388327Y-31790301D01*
X46209698Y-31611673D01*
X45976309Y-31515000D01*
X45285750Y-31515000D01*
X45127000Y-31673750D01*
X44873000Y-31673750D01*
X44714250Y-31515000D01*
X44023691Y-31515000D01*
X43790302Y-31611673D01*
X43611673Y-31790301D01*
X43515000Y-32023690D01*
X710000Y-32023690D01*
X710000Y-5143433D01*
X1221847Y-5656174D01*
X2373674Y-6134454D01*
X3620854Y-6135543D01*
X4773515Y-5659273D01*
X5656174Y-4778153D01*
X6134454Y-3626326D01*
X6135543Y-2379146D01*
X5659273Y-1226485D01*
X5143689Y-710000D01*
X43856567Y-710000D01*
X43343826Y-1221847D01*
M02*
